#!OML:ASF F:\VICON\USERDATA\INSTALL\SteveWalk\SteveWalk.ASF
:FULLY-SPECIFIED
:DEGREES

284
root -0.0596024 16.1611 15.6586 18.7266 -3.25082 -2.29304
lowerback -16.4356 1.98952 1.23216
upperback -5.25975 2.34812 1.49697
thorax 3.58535 1.16649 1.32795
lowerneck -3.31988 0.157296 -0.33564
upperneck 7.70907 0.360045 -1.63227
head 3.04221 0.111636 -0.455829
rclavicle 7.68427e-015 1.19271e-014
rhumerus -11.2234 5.35819 -83.2676
rradius 40.2591
rwrist -12.4597
rhand -16.7665 -33.3075
rfingers 7.12502
rthumb 9.46061 -63.0752
lclavicle 7.68427e-015 1.19271e-014
lhumerus -66.8088 29.9906 45.2329
lradius 10.9804
lwrist -45.9891
lhand -7.86284 -12.4058
lfingers 7.12502
lthumb 18.0408 16.7775
rfemur -8.53201 -7.46878 23.1958
rtibia 23.6899
rfoot -27.4769 14.0724
rtoes -7.60415
lfemur -48.594 5.72968 -19.9736
ltibia 16.0549
lfoot -10.5131 6.81315
ltoes 1.3067
285
root -0.0447428 16.1319 15.8701 19.1413 -4.05205 -2.57286
lowerback -16.5322 2.31417 1.31961
upperback -5.34785 2.7623 1.4349
thorax 3.54499 1.37064 1.29442
lowerneck -3.86814 0.171757 -0.355204
upperneck 7.92416 0.379018 -1.50679
head 3.21981 0.121248 -0.412347
rclavicle -3.35822e-014 -2.34566e-014
rhumerus -10.4031 6.05068 -83.0743
rradius 41.1759
rwrist -13.5816
rhand -18.1318 -32.7261
rfingers 7.12502
rthumb 8.14316 -62.5492
lclavicle -3.35822e-014 -2.34566e-014
lhumerus -66.7875 28.6717 46.4955
lradius 11.1476
lwrist -43.6786
lhand -8.1556 -11.8869
lfingers 7.12502
lthumb 17.7591 17.3221
rfemur -7.71159 -6.8127 23.0559
rtibia 22.7441
rfoot -26.8562 14.3993
rtoes -9.03603
lfemur -49.3117 6.77479 -20.1429
ltibia 14.4937
lfoot -10.5887 5.19195
ltoes -2.5208
286
root -0.0230638 16.1123 16.1018 19.3907 -4.30893 -2.99414
lowerback -16.806 2.52894 1.80445
upperback -5.29853 2.95909 1.37702
thorax 3.76684 1.46583 1.01309
lowerneck -4.42136 0.11557 -0.441907
upperneck 8.10646 0.298947 -1.28265
head 3.3875 0.0842362 -0.328538
rclavicle -1.77415e-014 -7.95139e-015
rhumerus -9.69788 6.81238 -82.9761
rradius 43.0303
rwrist -14.5696
rhand -19.7676 -40.6534
rfingers 7.12502
rthumb 6.56419 -70.5316
lclavicle -1.77415e-014 -7.95139e-015
lhumerus -67.3269 28.1415 46.145
lradius 11.0572
lwrist -43.0724
lhand -10.2551 -14.2418
lfingers 7.12502
lthumb 15.738 15.1383
rfemur -6.53852 -6.76137 23.1387
rtibia 21.7527
rfoot -26.5457 14.6066
rtoes -10.8729
lfemur -49.9823 8.30956 -20.9852
ltibia 13.6457
lfoot -10.9122 2.17383
ltoes -1.21011
287
root -0.0066035 16.0852 16.3379 19.7219 -4.54576 -3.48946
lowerback -17.5132 2.72692 2.33639
upperback -5.05813 3.101 1.32474
thorax 4.4261 1.53579 0.72923
lowerneck -4.88192 0.110251 -0.53981
upperneck 7.93052 0.274348 -0.960045
head 3.41417 0.0813786 -0.206949
rclavicle 7.51655e-016 6.55989e-015
rhumerus -8.60937 7.09822 -82.8039
rradius 43.8215
rwrist -14.9532
rhand -19.9719 -40.2762
rfingers 7.12502
rthumb 6.36694 -70.1605
lclavicle 7.51655e-016 6.55989e-015
lhumerus -67.7583 27.9964 45.6118
lradius 11.0259
lwrist -42.8478
lhand -10.8061 -14.7935
lfingers 7.12502
lthumb 15.2073 14.6276
rfemur -5.43917 -6.55622 23.3005
rtibia 20.7573
rfoot -26.318 14.6306
rtoes -13.6698
lfemur -50.8386 8.80641 -20.8273
ltibia 13.546
lfoot -11.382 0.602502
ltoes -3.91102
288
root 0.012851 16.0511 16.5845 19.9717 -4.53829 -3.86734
lowerback -18.1153 2.84387 2.73091
upperback -4.91545 3.15768 1.29811
thorax 4.91888 1.56594 0.525621
lowerneck -5.04676 0.126317 -0.615878
upperneck 7.68431 0.280354 -0.710149
head 3.3599 0.0928846 -0.111456
rclavicle 3.05942e-014 2.54444e-014
rhumerus -7.79621 7.33801 -82.5525
rradius 44.6273
rwrist -15.1082
rhand -20.2717 -41.9166
rfingers 7.12502
rthumb 6.07747 -71.8095
lclavicle 3.05942e-014 2.54444e-014
lhumerus -68.1432 27.5386 45.5089
lradius 11.0671
lwrist -42.2681
lhand -10.5622 -14.6394
lfingers 7.12502
lthumb 15.4422 14.7637
rfemur -4.31939 -6.41774 23.3795
rtibia 19.8476
rfoot -25.3232 15.6401
rtoes -12.9806
lfemur -51.6971 9.01091 -20.712
ltibia 14.0104
lfoot -12.1756 -0.696226
ltoes -2.2094
289
root 0.0376634 16.0169 16.8304 20.0832 -4.43963 -3.84404
lowerback -18.3717 2.86184 2.77062
upperback -4.93728 3.1719 1.16018
thorax 5.04132 1.57302 0.371992
lowerneck -4.86481 0.0919587 -0.70186
upperneck 7.39536 0.218191 -0.475507
head 3.22452 0.070396 -0.0227531
rclavicle -1.54369e-014 -6.16232e-015
rhumerus -7.49142 6.82118 -82.3527
rradius 44.6756
rwrist -14.1018
rhand -17.6162 -32.6194
rfingers 7.12502
rthumb 8.64073 -62.4226
lclavicle -1.54369e-014 -6.16232e-015
lhumerus -68.8918 27.1327 44.7275
lradius 11.0005
lwrist -42.3026
lhand -10.2776 -14.7051
lfingers 7.12502
lthumb 15.7163 14.6767
rfemur -3.37863 -6.54415 23.0281
rtibia 19.3681
rfoot -23.2422 17.8969
rtoes -7.58991
lfemur -52.149 8.93025 -20.9771
ltibia 14.4611
lfoot -12.4816 -1.75853
ltoes -7.51805
290
root 0.05788 15.9838 17.0632 20.0143 -4.35871 -3.45164
lowerback -17.9618 2.79034 2.3496
upperback -5.13555 3.18974 0.923045
thorax 4.60556 1.5783 0.33536
lowerneck -4.92255 0.0100689 -0.84907
upperneck 7.48586 0.0909179 -0.0966726
head 3.26691 0.0172996 0.1207
rclavicle -1.22128e-014 -1.17283e-014
rhumerus -7.85395 7.15594 -82.2997
rradius 46.0023
rwrist -15.0584
rhand -19.1623 -33.3767
rfingers 7.12502
rthumb 7.14853 -63.2359
lclavicle -1.22128e-014 -1.17283e-014
lhumerus -70.1277 26.8506 43.0268
lradius 10.879
lwrist -43.2834
lhand -10.4626 -15.0166
lfingers 7.12502
lthumb 15.5381 14.3791
rfemur -2.34473 -6.51012 22.3354
rtibia 19.58
rfoot -23.1481 17.4393
rtoes -12.6315
lfemur -52.0393 8.76301 -21.553
ltibia 14.5936
lfoot -12.4737 -3.31277
ltoes -1.82966
291
root 0.0654166 15.9366 17.2867 19.7743 -4.52084 -2.83207
lowerback -17.3155 2.71025 1.4238
upperback -5.23968 3.28258 0.666042
thorax 4.12063 1.62252 0.569915
lowerneck -5.23828 -0.0844755 -0.906329
upperneck 7.60492 -0.0496164 0.172876
head 3.37001 -0.0438549 0.212799
rclavicle 6.24308e-015 8.44835e-015
rhumerus -8.11469 6.98317 -82.1041
rradius 47.0922
rwrist -14.6209
rhand -18.9633 -33.658
rfingers 7.12502
rthumb 7.34062 -63.5106
lclavicle 6.24308e-015 8.44835e-015
lhumerus -71.0123 26.55 41.7715
lradius 10.7947
lwrist -43.9617
lhand -10.9031 -15.0941
lfingers 7.12502
lthumb 15.1139 14.3341
rfemur -1.50245 -5.68058 21.4708
rtibia 20.2544
rfoot -23.7813 15.7126
rtoes -19.8484
lfemur -51.4256 6.99957 -20.6646
ltibia 14.7302
lfoot -12.2717 -2.35325
ltoes 1.85223
292
root 0.0582891 15.8819 17.5 19.5988 -5.14157 -2.24716
lowerback -16.8304 2.74539 0.180358
upperback -5.27511 3.55645 0.459712
thorax 3.7668 1.76007 1.0808
lowerneck -5.26063 -0.163438 -0.832861
upperneck 7.31804 -0.166398 0.229136
head 3.27576 -0.0967251 0.212706
rclavicle -1.19845e-014 5.96354e-015
rhumerus -8.32549 6.61526 -81.8824
rradius 48.2004
rwrist -14.0819
rhand -18.4937 -34.0208
rfingers 7.12502
rthumb 7.79381 -63.8572
lclavicle -1.19845e-014 5.96354e-015
lhumerus -71.9927 26.8563 39.681
lradius 10.6039
lwrist -45.6673
lhand -11.2734 -15.1324
lfingers 7.12502
lthumb 14.7571 14.3222
rfemur -1.11136 -3.95984 20.6381
rtibia 21.3
rfoot -23.6962 14.227
rtoes -23.0049
lfemur -50.8758 5.90616 -20.2022
ltibia 15.2155
lfoot -11.6324 -0.730299
ltoes -2.35005
